<svg width="27" height="23" viewBox="0 0 27 23" fill="none" xmlns="http://www.w3.org/2000/svg">
<path d="M10.9197 0.640625L6.91969 16.8806L5.95969 12.2406C7.50635 12.2406 8.78635 12.7206 9.79969 13.6806C10.813 14.6406 11.3197 15.9206 11.3197 17.5206C11.3197 19.1206 10.813 20.4273 9.79969 21.4406C8.78635 22.454 7.53302 22.9606 6.03969 22.9606C4.49302 22.9606 3.21302 22.454 2.19969 21.4406C1.18635 20.374 0.679688 19.0673 0.679688 17.5206C0.679688 16.9873 0.706354 16.4806 0.759687 16.0006C0.866354 15.5206 1.02635 14.9606 1.23969 14.3206C1.45302 13.6273 1.74635 12.8006 2.11969 11.8406L5.87969 0.640625H10.9197ZM26.0397 0.640625L22.0397 16.8806L21.0797 12.2406C22.6264 12.2406 23.9064 12.7206 24.9197 13.6806C25.933 14.6406 26.4397 15.9206 26.4397 17.5206C26.4397 19.1206 25.933 20.4273 24.9197 21.4406C23.9064 22.454 22.653 22.9606 21.1597 22.9606C19.613 22.9606 18.333 22.454 17.3197 21.4406C16.3064 20.374 15.7997 19.0673 15.7997 17.5206C15.7997 16.9873 15.8264 16.4806 15.8797 16.0006C15.9864 15.5206 16.1464 14.9606 16.3597 14.3206C16.573 13.6273 16.8664 12.8006 17.2397 11.8406L20.9997 0.640625H26.0397Z" fill="white"/>
</svg>
