<svg width="368" height="80" viewBox="0 0 368 80" fill="none" xmlns="http://www.w3.org/2000/svg">
<path d="M352.322 49.4477C350.786 49.4477 349.57 48.9784 348.674 48.0397C347.82 47.0584 347.202 45.8211 346.818 44.3277C346.476 42.7917 346.306 41.1917 346.306 39.5277C346.306 38.7171 346.327 37.8851 346.37 37.0317C346.455 36.1784 346.54 35.3464 346.626 34.5357C346.455 34.7064 346.284 34.8771 346.114 35.0477C345.943 35.1757 345.751 35.3251 345.538 35.4957C345.367 35.6664 345.132 35.7517 344.834 35.7517C344.535 35.7517 344.386 35.6877 344.386 35.5597C344.386 35.5171 344.428 35.4531 344.514 35.3677C344.898 35.0264 345.282 34.6637 345.666 34.2797C346.05 33.8531 346.434 33.4051 346.818 32.9357L347.458 29.0317C347.884 26.5997 348.375 23.9544 348.93 21.0957C349.527 18.1944 350.21 15.2717 350.978 12.3277C351.788 9.38372 352.684 6.61039 353.666 4.00772C353.964 3.28239 354.22 2.68505 354.434 2.21572C354.69 1.74639 355.031 1.51172 355.458 1.51172C355.927 1.51172 356.418 1.70372 356.93 2.08772C357.442 2.47172 357.826 2.87705 358.082 3.30372H358.146C359.17 4.58372 359.682 6.31172 359.682 8.48772C359.682 10.5784 359.276 12.9037 358.466 15.4637C357.655 17.9811 356.567 20.5197 355.202 23.0797C353.836 25.5971 352.322 27.9224 350.658 30.0557C349.804 34.4077 349.378 37.9491 349.378 40.6797C349.378 42.6851 349.591 44.2851 350.018 45.4797C350.444 46.6744 350.914 47.5277 351.426 48.0397C351.938 48.5517 352.3 48.8077 352.514 48.8077C353.026 48.8077 353.452 48.2957 353.794 47.2717C354.178 46.2051 354.498 44.8824 354.754 43.3037C355.01 41.6824 355.202 40.0184 355.33 38.3117C355.458 36.6051 355.522 35.0904 355.522 33.7677C355.522 32.5304 355.458 31.5917 355.33 30.9517C354.69 30.5677 354.37 29.7144 354.37 28.3917C354.37 27.5811 354.498 27.1757 354.754 27.1757H354.882C354.924 27.2184 354.988 27.2397 355.074 27.2397H355.138C355.138 27.2397 355.138 27.2611 355.138 27.3037C355.18 27.3037 355.223 27.3037 355.266 27.3037C355.906 27.4744 356.738 27.6877 357.762 27.9437C358.786 28.1571 359.874 28.3704 361.026 28.5837C362.178 28.7971 363.223 28.9677 364.162 29.0957C365.143 29.2237 365.868 29.2877 366.338 29.2877C366.508 29.2877 366.636 29.2664 366.722 29.2237C366.807 29.1811 366.871 29.1597 366.914 29.1597C367.042 29.1597 367.106 29.2024 367.106 29.2877C367.106 29.5011 366.935 29.7144 366.594 29.9277C366.295 30.1411 365.719 30.3544 364.866 30.5677C364.012 30.7811 363.031 30.9517 361.922 31.0797C360.855 31.2077 359.788 31.2717 358.722 31.2717C358.295 31.2717 357.89 31.2931 357.506 31.3357C357.122 31.3357 356.759 31.3144 356.418 31.2717C356.546 32.0824 356.652 33.0851 356.738 34.2797C356.823 35.4317 356.866 36.7757 356.866 38.3117C356.866 40.0184 356.738 41.7464 356.482 43.4957C356.268 45.2024 355.82 46.6317 355.138 47.7837C354.498 48.8931 353.559 49.4477 352.322 49.4477ZM351.298 26.9837C352.62 24.9784 353.815 22.9091 354.882 20.7757C355.948 18.5997 356.802 16.4877 357.442 14.4397C358.124 12.3491 358.466 10.4717 358.466 8.80772C358.466 8.21039 358.402 7.63439 358.274 7.07972C358.188 6.52505 358.039 6.03439 357.826 5.60772C356.546 8.72239 355.33 12.1784 354.178 15.9757C353.068 19.7304 352.108 23.3997 351.298 26.9837Z" fill="white"/>
<path d="M327.148 47.1425C325.612 47.1425 324.481 46.6519 323.756 45.6705C323.03 44.6465 322.668 43.4092 322.668 41.9585C322.668 40.4225 323.03 38.5452 323.756 36.3265C324.481 34.1078 325.249 32.0172 326.06 30.0545C325.334 30.5238 324.588 30.9505 323.82 31.3345C323.052 31.7185 322.369 31.9105 321.772 31.9105C321.345 31.9105 321.025 31.8038 320.812 31.5905C320.641 31.3772 320.556 31.1425 320.556 30.8865C320.556 30.6732 320.62 30.3532 320.748 29.9265C320.876 29.4998 321.089 29.0945 321.388 28.7105C321.729 28.3265 322.134 28.1345 322.604 28.1345C322.774 28.1345 322.86 28.1985 322.86 28.3265C322.86 28.3692 322.838 28.4118 322.796 28.4545C322.796 28.4545 322.796 28.4758 322.796 28.5185C322.753 28.6038 322.732 28.6892 322.732 28.7745C322.732 28.9452 322.838 29.0305 323.052 29.0305C323.18 29.0305 323.329 29.0092 323.5 28.9665C323.713 28.9238 323.926 28.8385 324.14 28.7105C324.566 28.4972 325.057 28.2412 325.612 27.9425C326.166 27.6012 326.785 27.2598 327.468 26.9185L328.428 24.9985C328.684 24.5292 328.982 24.2092 329.324 24.0385C329.665 23.8252 329.985 23.7185 330.284 23.7185C330.753 23.7185 331.158 23.8038 331.5 23.9745C331.884 24.1025 332.225 24.2732 332.524 24.4865C332.993 24.2732 333.484 24.0812 333.996 23.9105C334.55 23.6972 335.084 23.5478 335.596 23.4625C337.217 22.8652 338.902 22.3958 340.652 22.0545C342.401 21.6705 344.129 21.4785 345.836 21.4785C346.774 21.4785 347.734 21.6065 348.716 21.8625C349.697 22.1185 350.188 22.5238 350.188 23.0785C350.188 23.2492 350.017 23.3345 349.676 23.3345C348.993 23.3345 348.204 23.2492 347.308 23.0785C346.454 22.9078 345.601 22.8225 344.748 22.8225C343.681 22.8225 342.657 22.8865 341.676 23.0145C340.694 23.0998 339.777 23.2492 338.924 23.4625C339.606 23.7612 340.161 24.2732 340.588 24.9985C341.057 25.7239 341.292 26.6412 341.292 27.7505C341.292 28.9452 340.993 30.3745 340.396 32.0385C339.841 33.7025 339.073 35.4092 338.092 37.1585C337.153 38.9078 336.065 40.5505 334.828 42.0865C333.59 43.5799 332.31 44.7958 330.988 45.7345C329.665 46.6732 328.385 47.1425 327.148 47.1425ZM327.852 45.7985C328.748 45.7985 329.665 45.3932 330.604 44.5825C331.585 43.7718 332.545 42.7479 333.484 41.5105C334.422 40.2732 335.254 38.9932 335.98 37.6705C336.321 37.0732 336.705 36.2625 337.132 35.2385C337.601 34.2145 337.985 33.1265 338.284 31.9745C338.625 30.8225 338.796 29.7772 338.796 28.8385C338.796 27.9852 338.604 27.2812 338.22 26.7265C337.878 26.1292 337.217 25.8305 336.236 25.8305C335.766 25.8305 335.169 25.9585 334.444 26.2145C333.718 26.4705 332.95 26.7692 332.14 27.1105C331.969 27.2812 331.798 27.4732 331.628 27.6865C331.5 27.8572 331.393 28.0492 331.308 28.2625C330.497 29.7558 329.686 31.4198 328.876 33.2545C328.065 35.0465 327.382 36.7958 326.828 38.5025C326.316 40.2092 326.06 41.7025 326.06 42.9825C326.06 44.8599 326.657 45.7985 327.852 45.7985Z" fill="white"/>
<path d="M301.773 52.9675C301.347 52.9675 300.749 52.6262 299.981 51.9435C299.256 51.3035 298.744 50.4502 298.445 49.3835C298.275 48.6582 298.147 47.6769 298.061 46.4395C297.976 45.2022 297.933 43.8155 297.933 42.2795C297.933 39.7195 297.976 36.9675 298.061 34.0235C298.189 31.0795 298.253 28.4342 298.253 26.0875C298.253 25.3195 298.232 24.5942 298.189 23.9115C298.189 23.2289 298.168 22.6315 298.125 22.1195C298.04 22.0342 297.784 21.9702 297.357 21.9275C296.973 21.8422 296.589 21.7782 296.205 21.7355C295.864 21.6502 295.693 21.6075 295.693 21.6075C295.693 21.5222 296.013 21.3302 296.653 21.0315C297.336 20.6902 298.296 20.5195 299.533 20.5195C300.813 20.5195 301.645 20.7969 302.029 21.3515C302.456 21.8635 302.669 22.3115 302.669 22.6955C302.669 22.7809 302.669 22.8875 302.669 23.0155C302.669 23.1435 302.648 23.2502 302.605 23.3355C302.221 25.0849 301.859 26.8769 301.517 28.7115C301.219 30.5462 300.984 32.6582 300.813 35.0475C300.984 34.9195 301.133 34.7702 301.261 34.5995C301.389 34.3862 301.624 34.2369 301.965 34.1515C302.349 34.0662 302.776 34.1515 303.245 34.4075C303.715 34.6635 304.099 34.7915 304.397 34.7915C305.891 34.7489 306.979 34.4289 307.661 33.8315C308.344 33.1915 309.005 32.6582 309.645 32.2315C309.731 28.7755 310.072 26.0235 310.669 23.9755C311.267 21.8849 311.928 20.8395 312.653 20.8395C313.037 20.8395 313.379 21.1595 313.677 21.7995C313.976 22.3969 314.125 23.3142 314.125 24.5515C314.125 25.5329 313.933 26.6422 313.549 27.8795C313.165 29.0742 312.973 30.4822 312.973 32.1035C312.973 33.1702 313.059 34.3649 313.229 35.6875C313.4 36.9675 313.635 38.2049 313.933 39.3995C314.232 40.5515 314.573 41.5115 314.957 42.2795C315.341 43.0049 315.747 43.3675 316.173 43.3675C316.728 43.3675 317.283 43.0262 317.837 42.3435C318.392 41.6182 318.925 40.7862 319.437 39.8475C319.949 38.9089 320.397 38.0982 320.781 37.4155C321.208 36.6902 321.549 36.3275 321.805 36.3275C321.933 36.3275 321.997 36.4342 321.997 36.6475C321.997 36.8182 321.933 37.0955 321.805 37.4795C320.739 39.8689 319.843 41.7249 319.117 43.0475C318.392 44.3275 317.389 44.9675 316.109 44.9675C315.128 44.9675 314.147 44.5409 313.165 43.6875C312.525 43.0902 311.971 42.2155 311.501 41.0635C311.032 39.8689 310.648 38.6102 310.349 37.2875C310.093 35.9649 309.88 34.7915 309.709 33.7675C309.283 34.4502 308.536 35.0475 307.469 35.5595C306.445 36.0289 305.379 36.2635 304.269 36.2635C303.544 36.2635 302.883 36.1355 302.285 35.8795C301.859 35.6662 301.56 35.7302 301.389 36.0715C301.219 36.3702 301.112 36.7755 301.069 37.2875C301.069 37.7569 301.069 38.1409 301.069 38.4395C301.112 39.5489 301.176 40.8715 301.261 42.4075C301.389 43.9009 301.517 45.3729 301.645 46.8235C301.773 48.2742 301.88 49.5115 301.965 50.5355C302.051 51.5595 302.115 52.1142 302.157 52.1995C302.2 52.2849 302.221 52.3915 302.221 52.5195C302.221 52.8182 302.072 52.9675 301.773 52.9675Z" fill="white"/>
<path d="M284.713 55.5276C283.902 55.5276 283.219 55.3356 282.665 54.9516C282.11 54.6103 281.833 54.0556 281.833 53.2876C281.833 52.477 282.153 51.517 282.793 50.4076C283.433 49.2983 284.158 48.2316 284.969 47.2076C285.779 46.1836 286.419 45.3943 286.889 44.8396C288.51 42.9623 289.811 41.149 290.793 39.3996C291.817 37.6503 292.329 35.9863 292.329 34.4076C292.329 32.9143 291.795 31.549 290.729 30.3116C289.705 29.0316 287.998 27.8796 285.609 26.8556C285.097 26.5996 284.542 26.365 283.945 26.1516C283.39 25.9383 282.814 25.725 282.217 25.5116C281.235 28.4983 280.275 31.6983 279.337 35.1116C278.441 38.525 277.63 41.981 276.905 45.4796C276.179 48.9783 275.603 52.3916 275.177 55.7196C274.793 59.0903 274.601 62.205 274.601 65.0636C274.601 66.7276 274.665 68.2636 274.793 69.6716C274.963 71.1223 275.219 72.4236 275.561 73.5756C276.03 75.197 276.585 76.285 277.225 76.8396C277.907 77.3943 278.547 77.6716 279.145 77.6716C279.571 77.6716 279.955 77.5863 280.297 77.4156C280.681 77.2876 280.979 77.1596 281.193 77.0316C281.534 76.861 281.833 76.7756 282.089 76.7756C282.345 76.7756 282.473 76.8823 282.473 77.0956C282.473 77.181 282.409 77.3303 282.281 77.5436C282.11 77.757 281.683 78.1196 281.001 78.6316C280.318 79.1863 279.486 79.4636 278.505 79.4636C278.206 79.4636 277.865 79.421 277.481 79.3356C277.139 79.2503 276.777 79.101 276.393 78.8876C275.198 78.205 274.259 77.0956 273.577 75.5596C272.937 74.0663 272.467 72.2743 272.169 70.1836C271.913 68.1356 271.785 65.9596 271.785 63.6556C271.785 60.797 271.913 57.9383 272.169 55.0796C272.467 52.2636 272.766 49.8316 273.065 47.7836C273.321 45.821 273.726 43.6023 274.281 41.1276C274.835 38.6103 275.518 36.0076 276.329 33.3196C277.139 30.589 278.078 27.9223 279.145 25.3196C278.291 24.6796 277.353 24.2103 276.329 23.9116C275.347 23.613 274.409 23.421 273.513 23.3356C272.659 23.2503 272.019 23.2076 271.593 23.2076C271.337 23.165 271.251 23.0156 271.337 22.7596C271.465 22.461 271.678 22.1836 271.977 21.9276C272.275 21.629 272.574 21.4796 272.873 21.4796C275.347 21.4796 277.843 21.821 280.361 22.5036C280.617 21.9916 280.851 21.501 281.065 21.0316C280.809 20.605 280.617 20.1783 280.489 19.7516C280.403 19.325 280.361 18.9196 280.361 18.5356C280.361 18.109 280.425 17.7676 280.553 17.5116C280.851 16.701 281.129 16.061 281.385 15.5916C281.683 15.0796 282.089 14.909 282.601 15.0796C283.326 15.293 283.966 15.677 284.521 16.2316C285.118 16.7863 285.331 17.341 285.161 17.8956C284.435 19.517 283.731 21.309 283.049 23.2716C285.395 24.125 287.55 25.2343 289.513 26.5996C291.518 27.9223 293.182 29.4156 294.505 31.0796C295.486 32.317 295.977 33.7036 295.977 35.2396C295.977 36.6476 295.571 38.1196 294.761 39.6556C293.993 41.1916 292.947 42.7703 291.625 44.3916C291.241 44.861 290.729 45.4583 290.089 46.1836C289.449 46.909 288.787 47.677 288.105 48.4876C287.465 49.2556 286.91 49.981 286.441 50.6636C286.014 51.389 285.801 51.965 285.801 52.3916C285.801 52.861 286.078 53.117 286.633 53.1596C286.803 53.1596 286.974 53.1596 287.145 53.1596C287.358 53.2023 287.571 53.2023 287.785 53.1596H287.913C288.339 53.1596 288.553 53.3303 288.553 53.6716C288.553 54.013 288.339 54.333 287.913 54.6316C286.846 55.229 285.779 55.5276 284.713 55.5276Z" fill="white"/>
<path d="M266.733 49.0638C266.008 49.0638 265.304 48.7225 264.621 48.0398C263.981 47.3145 263.661 46.3971 263.661 45.2878C263.661 43.1971 263.725 41.1278 263.853 39.0798C264.024 36.9891 264.194 35.1331 264.365 33.5118C264.578 31.8478 264.728 30.6318 264.813 29.8638C264.386 31.6558 263.853 33.4478 263.213 35.2398C262.573 37.0318 261.933 38.7171 261.293 40.2958C260.653 41.8318 260.098 43.1331 259.629 44.1998C259.16 45.2238 258.882 45.8851 258.797 46.1838C258.626 46.6531 258.264 46.8878 257.709 46.8878C257.282 46.8878 256.792 46.7598 256.237 46.5038C255.682 46.2478 255.192 45.9491 254.765 45.6078C254.381 45.2238 254.168 44.9038 254.125 44.6478C254.082 44.4345 254.061 44.1998 254.061 43.9438C254.061 43.6451 254.061 43.3465 254.061 43.0478C254.061 41.8105 254.168 40.1678 254.381 38.1198C254.594 36.0291 254.936 33.3838 255.405 30.1838C255.661 28.4345 255.789 27.0265 255.789 25.9598C255.789 24.8505 255.661 23.9971 255.405 23.3998C255.192 22.8025 254.914 22.3545 254.573 22.0558C253.89 22.0558 253.186 21.9918 252.461 21.8638C251.736 21.6931 251.373 21.5011 251.373 21.2878C251.373 21.1598 251.714 20.9891 252.397 20.7758C253.122 20.5625 253.976 20.3918 254.957 20.2638C255.938 20.0931 256.834 20.0078 257.645 20.0078C258.242 20.0078 258.712 20.0718 259.053 20.1998C259.437 20.3278 259.629 20.5625 259.629 20.9038C259.629 22.0985 259.522 23.5705 259.309 25.3198C259.096 27.0265 258.84 28.8398 258.541 30.7598C258.285 32.6798 258.05 34.5571 257.837 36.3918C257.624 38.2265 257.517 39.8691 257.517 41.3198C257.517 41.8318 257.538 42.3225 257.581 42.7918C257.624 43.2185 257.688 43.6025 257.773 43.9438C258.114 43.8585 258.541 43.3038 259.053 42.2798C259.608 41.2131 260.184 39.8691 260.781 38.2478C261.421 36.6265 262.04 34.8985 262.637 33.0638C263.234 31.2291 263.768 29.4798 264.237 27.8158C264.706 26.1518 265.048 24.7438 265.261 23.5918C265.304 23.3785 265.474 23.2718 265.773 23.2718C266.242 23.2718 266.754 23.5278 267.309 24.0398C267.906 24.5091 268.333 25.0425 268.589 25.6398C268.461 26.1518 268.29 27.0691 268.077 28.3918C267.906 29.7145 267.714 31.2291 267.501 32.9358C267.33 34.5998 267.181 36.2425 267.053 37.8638C266.968 39.4425 266.925 40.7865 266.925 41.8958C266.925 43.2185 267.032 44.0505 267.245 44.3918C267.458 44.7331 267.714 44.9038 268.013 44.9038C268.354 44.9038 268.738 44.6051 269.165 44.0078C269.634 43.4105 270.104 42.6638 270.573 41.7678C271.042 40.8718 271.512 39.9971 271.981 39.1438C272.45 38.2478 272.856 37.5011 273.197 36.9038C273.581 36.3065 273.88 36.0078 274.093 36.0078C274.264 36.0078 274.349 36.1145 274.349 36.3278C274.349 36.4558 274.285 36.6905 274.157 37.0318C273.986 37.4585 273.688 38.1625 273.261 39.1438C272.877 40.0825 272.408 41.1278 271.853 42.2798C271.298 43.3891 270.722 44.4558 270.125 45.4798C269.528 46.5038 268.93 47.3571 268.333 48.0398C267.736 48.7225 267.202 49.0638 266.733 49.0638Z" fill="white"/>
<path d="M234.734 47.6546C234.008 47.8253 233.39 47.548 232.878 46.8226C232.408 46.0546 232.024 45.0093 231.726 43.6866C231.47 42.3213 231.278 40.8066 231.15 39.1426C231.064 37.4786 231.022 35.8146 231.022 34.1506C231.022 32.4866 231.064 30.9293 231.15 29.4786C231.235 28.028 231.32 26.876 231.406 26.0226C230.766 27.0893 230.062 28.6893 229.294 30.8226C228.526 32.9133 227.587 35.2813 226.478 37.9266C225.838 39.4626 225.091 40.956 224.238 42.4066C223.427 43.8573 222.574 45.0733 221.678 46.0546C220.824 46.9933 220.014 47.4626 219.246 47.4626C218.648 47.4626 218.072 47.2706 217.518 46.8866C216.963 46.46 216.686 45.9693 216.686 45.4146C216.686 44.476 216.878 44.1986 217.262 44.5826C217.518 44.8386 217.816 45.116 218.158 45.4146C218.499 45.6706 218.819 45.7986 219.118 45.7986C219.715 45.7986 220.376 45.372 221.102 44.5186C221.827 43.6226 222.574 42.4706 223.342 41.0626C224.11 39.612 224.856 38.0973 225.582 36.5186C225.795 36.0493 226.136 35.2173 226.606 34.0226C227.075 32.7853 227.608 31.42 228.206 29.9266C228.846 28.4333 229.464 27.0253 230.062 25.7026C230.659 24.3373 231.171 23.3133 231.598 22.6306C232.579 21.1373 233.496 20.3906 234.35 20.3906C235.075 20.3906 235.438 20.988 235.438 22.1826C235.438 22.5666 235.395 23.292 235.31 24.3586C235.224 25.4253 235.118 26.7053 234.99 28.1986C234.904 29.692 234.819 31.2706 234.734 32.9346C234.648 34.556 234.606 36.1133 234.606 37.6066C234.606 39.5693 234.712 41.2333 234.926 42.5986C235.139 43.9213 235.523 44.5826 236.078 44.5826C236.419 44.5826 236.782 44.3266 237.166 43.8146C237.592 43.3026 237.976 42.684 238.318 41.9586C238.702 41.1906 239.022 40.4866 239.278 39.8466C239.576 39.2066 239.768 38.7586 239.854 38.5026C240.024 38.0333 240.259 37.2866 240.558 36.2626C240.899 35.2386 241.24 34.1293 241.582 32.9346C241.966 31.6973 242.328 30.5453 242.67 29.4786C243.011 28.3693 243.288 27.4946 243.502 26.8546C243.587 26.4706 243.651 26.108 243.694 25.7666C243.779 25.3826 243.864 24.9986 243.95 24.6146C244.206 23.42 244.568 22.4813 245.038 21.7986C245.507 21.116 245.998 20.7746 246.51 20.7746C247.278 20.7746 247.854 21.5426 248.238 23.0786C248.195 23.676 248.024 24.5933 247.726 25.8306C247.47 27.068 247.171 28.5186 246.83 30.1826C246.488 31.804 246.19 33.5106 245.934 35.3026C245.678 37.052 245.55 38.7586 245.55 40.4226C245.55 42.0866 245.763 43.4306 246.19 44.4546C246.659 45.4786 247.278 45.9906 248.046 45.9906C248.814 45.9906 249.454 45.7346 249.966 45.2226C250.478 44.7106 250.883 44.22 251.182 43.7506C251.523 43.2386 251.758 42.9826 251.886 42.9826C252.056 42.9826 252.142 43.068 252.142 43.2386C252.142 43.4093 252.078 43.6013 251.95 43.8146C251.822 44.1133 251.608 44.5613 251.31 45.1586C251.054 45.756 250.712 46.3106 250.286 46.8226C249.859 47.292 249.304 47.5266 248.622 47.5266C247.299 47.5266 246.232 47.1853 245.422 46.5026C244.611 45.7773 244.014 44.8813 243.63 43.8146C243.246 42.7053 242.99 41.5533 242.862 40.3586C242.734 39.164 242.67 38.0546 242.67 37.0306C242.67 36.5613 242.67 36.0706 242.67 35.5586C242.67 35.004 242.691 34.4493 242.734 33.8946C242.392 35.0893 241.944 36.4546 241.39 37.9906C240.835 39.484 240.195 40.9346 239.47 42.3426C238.787 43.708 238.04 44.8813 237.23 45.8626C236.419 46.844 235.587 47.4413 234.734 47.6546Z" fill="white"/>
<path d="M180.525 56.8072C175.363 56.8072 171.437 55.5912 168.749 53.1592C166.104 50.7699 164.781 47.4206 164.781 43.1112C164.781 40.2099 165.336 37.2019 166.445 34.0872C167.597 30.9299 169.197 27.8579 171.245 24.8712C173.336 21.8846 175.811 19.1539 178.669 16.6792C181.571 14.1619 184.792 12.0712 188.333 10.4072C191.875 8.74324 195.651 7.67657 199.661 7.20723C199.917 7.16457 200.195 7.14323 200.493 7.14323C200.792 7.14323 201.091 7.14323 201.389 7.14323C202.371 7.14323 203.331 7.20723 204.269 7.33524C205.251 7.46324 205.976 7.6339 206.445 7.84724C206.659 7.59123 206.936 7.07923 207.277 6.31123C207.619 5.54323 207.96 4.73257 208.301 3.87923C208.685 2.98324 208.984 2.21524 209.197 1.57523C209.453 0.935234 209.581 0.615234 209.581 0.615234C209.795 0.615234 210.029 0.785901 210.285 1.12724C210.584 1.46857 210.733 1.9379 210.733 2.53524C210.733 2.62057 210.563 3.06857 210.221 3.87923C209.923 4.6899 209.539 5.56457 209.069 6.50323C208.643 7.39924 208.216 8.0179 207.789 8.35923C208.131 8.5299 208.301 8.7859 208.301 9.12724C208.301 9.72457 207.875 10.5139 207.021 11.4952C206.168 12.4766 205.165 13.4792 204.013 14.5032C202.861 15.5272 201.752 16.4446 200.685 17.2552C199.661 18.0232 198.957 18.5352 198.573 18.7912C197.635 19.4312 197.037 19.7512 196.781 19.7512C196.696 19.7512 196.653 19.7086 196.653 19.6232C196.653 19.6232 196.867 19.3459 197.293 18.7912C197.72 18.1939 198.275 17.4686 198.957 16.6152C199.64 15.7192 200.344 14.8232 201.069 13.9272C201.837 12.9886 202.541 12.1566 203.181 11.4312C202.84 11.2606 202.307 11.1752 201.581 11.1752C198.936 11.1752 196.227 11.6446 193.453 12.5832C190.723 13.5219 188.035 14.8232 185.389 16.4872C182.787 18.1086 180.333 19.9859 178.029 22.1192C175.725 24.2526 173.699 26.5352 171.949 28.9672C170.2 31.3566 168.835 33.7886 167.853 36.2632C166.872 38.7379 166.381 41.1272 166.381 43.4312C166.381 46.6739 167.512 48.9566 169.773 50.2792C172.077 51.6019 175.149 52.2632 178.989 52.2632C181.805 52.2632 184.856 51.9646 188.141 51.3672C191.427 50.7699 194.755 49.9806 198.125 48.9992C201.496 48.0179 204.717 46.9512 207.789 45.7992C210.904 44.6046 213.677 43.4099 216.109 42.2152C218.584 40.9779 220.525 39.8472 221.933 38.8232C222.147 38.6099 222.36 38.5032 222.573 38.5032C222.744 38.5032 222.829 38.5886 222.829 38.7592C222.829 38.9299 222.744 39.1006 222.573 39.2712C220.611 41.1912 218.328 43.0686 215.725 44.9032C213.165 46.6952 210.136 48.4019 206.637 50.0232C203.181 51.6446 199.064 53.1379 194.285 54.5032C189.037 56.0392 184.451 56.8072 180.525 56.8072Z" fill="white"/>
<path d="M139.506 17.9595C138.738 17.9595 137.927 17.7889 137.074 17.4475C136.263 17.0635 135.581 16.5515 135.026 15.9115C134.471 15.2715 134.194 14.5462 134.194 13.7355C134.194 13.5649 134.279 13.4795 134.45 13.4795C134.749 13.4795 135.069 13.7569 135.41 14.3115C135.751 14.8235 136.242 15.3569 136.882 15.9115C137.565 16.4235 138.567 16.6795 139.89 16.6795C140.829 16.6795 141.639 16.4662 142.322 16.0395C143.005 15.6129 143.581 15.1435 144.05 14.6315C144.519 14.0769 144.903 13.5862 145.202 13.1595C145.501 12.7329 145.735 12.5195 145.906 12.5195C146.077 12.5195 146.162 12.6049 146.162 12.7755C146.162 12.8182 146.141 12.8609 146.098 12.9035C146.098 12.9462 146.098 13.0102 146.098 13.0955C145.543 14.2475 144.711 15.3569 143.602 16.4235C142.493 17.4475 141.127 17.9595 139.506 17.9595ZM143.858 49.0635C143.133 49.0635 142.429 48.7222 141.746 48.0395C141.106 47.3142 140.786 46.3969 140.786 45.2875C140.786 43.1969 140.85 41.1275 140.978 39.0795C141.149 36.9889 141.319 35.1329 141.49 33.5115C141.703 31.8475 141.853 30.6315 141.938 29.8635C141.511 31.6555 140.978 33.4475 140.338 35.2395C139.698 37.0315 139.058 38.7169 138.418 40.2955C137.778 41.8315 137.223 43.1329 136.754 44.1995C136.285 45.2235 136.007 45.8849 135.922 46.1835C135.751 46.6529 135.389 46.8875 134.834 46.8875C134.407 46.8875 133.917 46.7595 133.362 46.5035C132.807 46.2475 132.317 45.9489 131.89 45.6075C131.506 45.2235 131.293 44.9035 131.25 44.6475C131.207 44.4342 131.186 44.1995 131.186 43.9435C131.186 43.6449 131.186 43.3462 131.186 43.0475C131.186 41.8102 131.293 40.1675 131.506 38.1195C131.719 36.0289 132.061 33.3835 132.53 30.1835C132.786 28.4342 132.914 27.0262 132.914 25.9595C132.914 24.8502 132.786 23.9969 132.53 23.3995C132.317 22.8022 132.039 22.3542 131.698 22.0555C131.015 22.0555 130.311 21.9915 129.586 21.8635C128.861 21.6929 128.498 21.5009 128.498 21.2875C128.498 21.1595 128.839 20.9889 129.522 20.7755C130.247 20.5622 131.101 20.3915 132.082 20.2635C133.063 20.0929 133.959 20.0075 134.77 20.0075C135.367 20.0075 135.837 20.0715 136.178 20.1995C136.562 20.3275 136.754 20.5622 136.754 20.9035C136.754 22.0982 136.647 23.5702 136.434 25.3195C136.221 27.0262 135.965 28.8395 135.666 30.7595C135.41 32.6795 135.175 34.5569 134.962 36.3915C134.749 38.2262 134.642 39.8689 134.642 41.3195C134.642 41.8315 134.663 42.3222 134.706 42.7915C134.749 43.2182 134.813 43.6022 134.898 43.9435C135.239 43.8582 135.666 43.3035 136.178 42.2795C136.733 41.2129 137.309 39.8689 137.906 38.2475C138.546 36.6262 139.165 34.8982 139.762 33.0635C140.359 31.2289 140.893 29.4795 141.362 27.8155C141.831 26.1515 142.173 24.7435 142.386 23.5915C142.429 23.3782 142.599 23.2715 142.898 23.2715C143.367 23.2715 143.879 23.5275 144.434 24.0395C145.031 24.5089 145.458 25.0422 145.714 25.6395C145.586 26.1515 145.415 27.0689 145.202 28.3915C145.031 29.7142 144.839 31.2289 144.626 32.9355C144.455 34.5995 144.306 36.2422 144.178 37.8635C144.093 39.4422 144.05 40.7862 144.05 41.8955C144.05 43.2182 144.157 44.0502 144.37 44.3915C144.583 44.7329 144.839 44.9035 145.138 44.9035C145.479 44.9035 145.863 44.6049 146.29 44.0075C146.759 43.4102 147.229 42.6635 147.698 41.7675C148.167 40.8715 148.637 39.9969 149.106 39.1435C149.575 38.2475 149.981 37.5009 150.322 36.9035C150.706 36.3062 151.005 36.0075 151.218 36.0075C151.389 36.0075 151.474 36.1142 151.474 36.3275C151.474 36.4555 151.41 36.6902 151.282 37.0315C151.111 37.4582 150.813 38.1622 150.386 39.1435C150.002 40.0822 149.533 41.1275 148.978 42.2795C148.423 43.3889 147.847 44.4555 147.25 45.4795C146.653 46.5035 146.055 47.3569 145.458 48.0395C144.861 48.7222 144.327 49.0635 143.858 49.0635Z" fill="white"/>
<path d="M122.272 47.9758C120.822 47.9758 119.691 47.5065 118.88 46.5678C118.112 45.6292 117.579 44.4345 117.28 42.9838C117.024 41.4905 116.896 39.9972 116.896 38.5038C116.896 37.4798 116.939 36.5198 117.024 35.6238C117.11 34.6852 117.195 33.8745 117.28 33.1918C117.494 31.4425 117.771 29.7572 118.112 28.1358C118.454 26.5145 118.774 25.1278 119.072 23.9758C119.414 22.8238 119.627 22.0772 119.712 21.7358C119.883 21.1385 120.203 20.8398 120.672 20.8398C121.142 20.8398 121.675 21.1598 122.272 21.7998C122.87 22.3972 123.296 22.8878 123.552 23.2718C124.534 23.5705 125.494 23.9332 126.432 24.3598C127.371 24.7438 128.139 25.1705 128.736 25.6398C129.376 26.1092 129.696 26.6212 129.696 27.1758C129.696 28.2425 129.248 29.3092 128.352 30.3758C127.456 31.4425 126.326 32.4238 124.96 33.3198C123.595 34.2158 122.208 34.9838 120.8 35.6238C120.672 36.6478 120.608 37.6718 120.608 38.6958C120.608 40.4025 120.822 41.8958 121.248 43.1758C121.675 44.4558 122.4 45.0958 123.424 45.0958C124.32 45.0958 125.174 44.7758 125.984 44.1358C126.838 43.4958 127.627 42.6852 128.352 41.7038C129.078 40.7225 129.718 39.7412 130.272 38.7598C130.87 37.7358 131.318 36.8825 131.616 36.1998C131.702 35.9438 131.894 35.8158 132.192 35.8158C132.363 35.8158 132.448 36.0078 132.448 36.3918C132.448 36.7332 132.192 37.4585 131.68 38.5678C131.168 39.5918 130.635 40.5732 130.08 41.5118C129.568 42.4078 129.056 43.1972 128.544 43.8798C127.819 44.8185 126.923 45.7358 125.856 46.6318C124.832 47.5278 123.638 47.9758 122.272 47.9758ZM120.992 33.8318C122.486 33.0212 123.808 32.0612 124.96 30.9518C126.155 29.7998 126.752 28.5625 126.752 27.2398C126.752 26.7705 126.39 26.3012 125.664 25.8318C124.982 25.3198 124.171 24.8932 123.232 24.5518C122.72 25.9172 122.272 27.3678 121.888 28.9038C121.547 30.4398 121.248 32.0825 120.992 33.8318Z" fill="white"/>
<path d="M109.711 45.6075C108.089 45.6075 107.001 44.7115 106.447 42.9195C105.935 41.1275 105.679 38.9302 105.679 36.3275C105.679 35.2182 105.7 34.1515 105.743 33.1275C105.828 32.1035 105.871 31.1862 105.871 30.3755C105.871 29.3942 105.7 28.9035 105.359 28.9035C104.804 28.9035 104.121 29.3942 103.311 30.3755C102.543 31.3569 101.711 32.6582 100.815 34.2795C99.9187 35.9009 98.98 37.6715 97.9987 39.5915C97.7 40.1035 97.4013 40.3595 97.1027 40.3595C96.932 40.3595 96.8467 40.2315 96.8467 39.9755C96.8467 39.6342 96.996 39.1649 97.2947 38.5675C97.892 37.4155 98.5107 36.0288 99.1507 34.4075C99.8333 32.7862 100.58 31.1862 101.391 29.6075C102.244 28.0289 103.183 26.7275 104.207 25.7035C105.231 24.6369 106.361 24.1035 107.599 24.1035C108.452 24.1035 109.028 24.4875 109.327 25.2555C109.625 26.0235 109.775 26.9622 109.775 28.0715C109.775 29.6502 109.689 31.1862 109.519 32.6795C109.348 34.1302 109.263 35.3249 109.263 36.2635C109.263 38.1835 109.455 39.7622 109.839 40.9995C110.265 42.2369 110.884 42.8555 111.695 42.8555C112.207 42.8555 112.697 42.5782 113.167 42.0235C113.636 41.4689 114.041 40.8715 114.383 40.2315C114.767 39.5915 115.023 39.1222 115.151 38.8235C116.047 37.1595 116.601 36.0929 116.815 35.6235C117.028 35.1115 117.305 34.8555 117.647 34.8555C117.775 34.8555 117.839 34.9409 117.839 35.1115C117.839 35.1969 117.796 35.4102 117.711 35.7515C117.199 37.1595 116.559 38.6315 115.791 40.1675C115.065 41.6609 114.191 42.9409 113.167 44.0075C112.143 45.0742 110.991 45.6075 109.711 45.6075Z" fill="white"/>
<path d="M84.6502 55.5276C83.8395 55.5276 83.1569 55.3356 82.6022 54.9516C82.0475 54.6103 81.7702 54.0556 81.7702 53.2876C81.7702 52.477 82.0902 51.517 82.7302 50.4076C83.3702 49.2983 84.0955 48.2316 84.9062 47.2076C85.7169 46.1836 86.3569 45.3943 86.8262 44.8396C88.4475 42.9623 89.7489 41.149 90.7302 39.3996C91.7542 37.6503 92.2662 35.9863 92.2662 34.4076C92.2662 32.9143 91.7329 31.549 90.6662 30.3116C89.6422 29.0316 87.9355 27.8796 85.5462 26.8556C85.0342 26.5996 84.4795 26.365 83.8822 26.1516C83.3275 25.9383 82.7515 25.725 82.1542 25.5116C81.1729 28.4983 80.2129 31.6983 79.2742 35.1116C78.3782 38.525 77.5675 41.981 76.8422 45.4796C76.1169 48.9783 75.5409 52.3916 75.1142 55.7196C74.7302 59.0903 74.5382 62.205 74.5382 65.0636C74.5382 66.7276 74.6022 68.2636 74.7302 69.6716C74.9009 71.1223 75.1569 72.4236 75.4982 73.5756C75.9675 75.197 76.5222 76.285 77.1622 76.8396C77.8449 77.3943 78.4849 77.6716 79.0822 77.6716C79.5089 77.6716 79.8929 77.5863 80.2342 77.4156C80.6182 77.2876 80.9169 77.1596 81.1302 77.0316C81.4715 76.861 81.7702 76.7756 82.0262 76.7756C82.2822 76.7756 82.4102 76.8823 82.4102 77.0956C82.4102 77.181 82.3462 77.3303 82.2182 77.5436C82.0475 77.757 81.6209 78.1196 80.9382 78.6316C80.2555 79.1863 79.4235 79.4636 78.4422 79.4636C78.1435 79.4636 77.8022 79.421 77.4182 79.3356C77.0769 79.2503 76.7142 79.101 76.3302 78.8876C75.1355 78.205 74.1969 77.0956 73.5142 75.5596C72.8742 74.0663 72.4049 72.2743 72.1062 70.1836C71.8502 68.1356 71.7222 65.9596 71.7222 63.6556C71.7222 60.797 71.8502 57.9383 72.1062 55.0796C72.4049 52.2636 72.7035 49.8316 73.0022 47.7836C73.2582 45.821 73.6635 43.6023 74.2182 41.1276C74.7729 38.6103 75.4555 36.0076 76.2662 33.3196C77.0769 30.589 78.0155 27.9223 79.0822 25.3196C78.2289 24.6796 77.2902 24.2103 76.2662 23.9116C75.2849 23.613 74.3462 23.421 73.4502 23.3356C72.5968 23.2503 71.9569 23.2076 71.5302 23.2076C71.2742 23.165 71.1889 23.0156 71.2742 22.7596C71.4022 22.461 71.6155 22.1836 71.9142 21.9276C72.2129 21.629 72.5115 21.4796 72.8102 21.4796C75.2849 21.4796 77.7809 21.821 80.2982 22.5036C80.5542 21.9916 80.7889 21.501 81.0022 21.0316C80.7462 20.605 80.5542 20.1783 80.4262 19.7516C80.3409 19.325 80.2982 18.9196 80.2982 18.5356C80.2982 18.109 80.3622 17.7676 80.4902 17.5116C80.7889 16.701 81.0662 16.061 81.3222 15.5916C81.6209 15.0796 82.0262 14.909 82.5382 15.0796C83.2635 15.293 83.9035 15.677 84.4582 16.2316C85.0555 16.7863 85.2689 17.341 85.0982 17.8956C84.3729 19.517 83.6689 21.309 82.9862 23.2716C85.3329 24.125 87.4875 25.2343 89.4502 26.5996C91.4555 27.9223 93.1195 29.4156 94.4422 31.0796C95.4235 32.317 95.9142 33.7036 95.9142 35.2396C95.9142 36.6476 95.5088 38.1196 94.6982 39.6556C93.9302 41.1916 92.8848 42.7703 91.5622 44.3916C91.1782 44.861 90.6662 45.4583 90.0262 46.1836C89.3862 46.909 88.7249 47.677 88.0422 48.4876C87.4022 49.2556 86.8475 49.981 86.3782 50.6636C85.9515 51.389 85.7382 51.965 85.7382 52.3916C85.7382 52.861 86.0155 53.117 86.5702 53.1596C86.7409 53.1596 86.9115 53.1596 87.0822 53.1596C87.2955 53.2023 87.5089 53.2023 87.7222 53.1596H87.8502C88.2769 53.1596 88.4902 53.3303 88.4902 53.6716C88.4902 54.013 88.2769 54.333 87.8502 54.6316C86.7835 55.229 85.7169 55.5276 84.6502 55.5276Z" fill="white"/>
<path d="M63.96 47.9758C62.5093 47.9758 61.3787 47.5065 60.568 46.5678C59.8 45.6292 59.2667 44.4345 58.968 42.9838C58.712 41.4905 58.584 39.9972 58.584 38.5038C58.584 37.4798 58.6267 36.5198 58.712 35.6238C58.7973 34.6852 58.8826 33.8745 58.968 33.1918C59.1813 31.4425 59.4587 29.7572 59.8 28.1358C60.1413 26.5145 60.4613 25.1278 60.76 23.9758C61.1013 22.8238 61.3147 22.0772 61.4 21.7358C61.5707 21.1385 61.8907 20.8398 62.36 20.8398C62.8293 20.8398 63.3627 21.1598 63.96 21.7998C64.5573 22.3972 64.984 22.8878 65.24 23.2718C66.2213 23.5705 67.1813 23.9332 68.12 24.3598C69.0587 24.7438 69.8267 25.1705 70.424 25.6398C71.064 26.1092 71.384 26.6212 71.384 27.1758C71.384 28.2425 70.936 29.3092 70.04 30.3758C69.144 31.4425 68.0133 32.4238 66.648 33.3198C65.2827 34.2158 63.896 34.9838 62.488 35.6238C62.36 36.6478 62.296 37.6718 62.296 38.6958C62.296 40.4025 62.5093 41.8958 62.936 43.1758C63.3627 44.4558 64.088 45.0958 65.112 45.0958C66.008 45.0958 66.8613 44.7758 67.672 44.1358C68.5253 43.4958 69.3147 42.6852 70.04 41.7038C70.7653 40.7225 71.4053 39.7412 71.96 38.7598C72.5573 37.7358 73.0053 36.8825 73.304 36.1998C73.3893 35.9438 73.5813 35.8158 73.88 35.8158C74.0507 35.8158 74.136 36.0078 74.136 36.3918C74.136 36.7332 73.88 37.4585 73.368 38.5678C72.856 39.5918 72.3227 40.5732 71.768 41.5118C71.256 42.4078 70.744 43.1972 70.232 43.8798C69.5067 44.8185 68.6107 45.7358 67.544 46.6318C66.52 47.5278 65.3253 47.9758 63.96 47.9758ZM62.68 33.8318C64.1733 33.0212 65.496 32.0612 66.648 30.9518C67.8427 29.7998 68.44 28.5625 68.44 27.2398C68.44 26.7705 68.0773 26.3012 67.352 25.8318C66.6693 25.3198 65.8586 24.8932 64.92 24.5518C64.408 25.9172 63.96 27.3678 63.576 28.9038C63.2347 30.4398 62.936 32.0825 62.68 33.8318Z" fill="white"/>
<path d="M16.0878 56.8072C10.9251 56.8072 6.99975 55.5912 4.31175 53.1592C1.66642 50.7699 0.34375 47.4206 0.34375 43.1112C0.34375 40.2099 0.898417 37.2019 2.00775 34.0872C3.15975 30.9299 4.75975 27.8579 6.80775 24.8712C8.89842 21.8846 11.3731 19.1539 14.2318 16.6792C17.1331 14.1619 20.3544 12.0712 23.8958 10.4072C27.4371 8.74324 31.2131 7.67657 35.2238 7.20723C35.4798 7.16457 35.7571 7.14323 36.0558 7.14323C36.3544 7.14323 36.6531 7.14323 36.9518 7.14323C37.9331 7.14323 38.8931 7.20723 39.8317 7.33524C40.8131 7.46324 41.5384 7.6339 42.0078 7.84724C42.2211 7.59123 42.4984 7.07923 42.8398 6.31123C43.1811 5.54323 43.5224 4.73257 43.8638 3.87923C44.2478 2.98324 44.5464 2.21524 44.7598 1.57523C45.0157 0.935234 45.1437 0.615234 45.1437 0.615234C45.3571 0.615234 45.5917 0.785901 45.8478 1.12724C46.1464 1.46857 46.2957 1.9379 46.2957 2.53524C46.2957 2.62057 46.1251 3.06857 45.7837 3.87923C45.4851 4.6899 45.1011 5.56457 44.6318 6.50323C44.2051 7.39924 43.7784 8.0179 43.3517 8.35923C43.6931 8.5299 43.8638 8.7859 43.8638 9.12724C43.8638 9.72457 43.4371 10.5139 42.5838 11.4952C41.7304 12.4766 40.7277 13.4792 39.5757 14.5032C38.4238 15.5272 37.3144 16.4446 36.2477 17.2552C35.2237 18.0232 34.5197 18.5352 34.1357 18.7912C33.1971 19.4312 32.5997 19.7512 32.3438 19.7512C32.2584 19.7512 32.2158 19.7086 32.2158 19.6232C32.2158 19.6232 32.4291 19.3459 32.8558 18.7912C33.2824 18.1939 33.8371 17.4686 34.5197 16.6152C35.2024 15.7192 35.9064 14.8232 36.6317 13.9272C37.3997 12.9886 38.1037 12.1566 38.7438 11.4312C38.4024 11.2606 37.8691 11.1752 37.1437 11.1752C34.4984 11.1752 31.7891 11.6446 29.0158 12.5832C26.2851 13.5219 23.5971 14.8232 20.9518 16.4872C18.3491 18.1086 15.8958 19.9859 13.5918 22.1192C11.2878 24.2526 9.26108 26.5352 7.51175 28.9672C5.76242 31.3566 4.39708 33.7886 3.41575 36.2632C2.43442 38.7379 1.94375 41.1272 1.94375 43.4312C1.94375 46.6739 3.07442 48.9566 5.33575 50.2792C7.63975 51.6019 10.7118 52.2632 14.5518 52.2632C17.3678 52.2632 20.4184 51.9646 23.7038 51.3672C26.9891 50.7699 30.3171 49.9806 33.6878 48.9992C37.0584 48.0179 40.2798 46.9512 43.3517 45.7992C46.4664 44.6046 49.2397 43.4099 51.6717 42.2152C54.1464 40.9779 56.0878 39.8472 57.4958 38.8232C57.7091 38.6099 57.9224 38.5032 58.1357 38.5032C58.3064 38.5032 58.3918 38.5886 58.3918 38.7592C58.3918 38.9299 58.3064 39.1006 58.1357 39.2712C56.1731 41.1912 53.8904 43.0686 51.2878 44.9032C48.7278 46.6952 45.6984 48.4019 42.1997 50.0232C38.7438 51.6446 34.6264 53.1379 29.8478 54.5032C24.5998 56.0392 20.0131 56.8072 16.0878 56.8072Z" fill="white"/>
</svg>
