<svg width="193" height="175" viewBox="0 0 193 175" fill="none" xmlns="http://www.w3.org/2000/svg">
<path opacity="0.5" d="M72.1996 0.599609L41.3996 130.1L35.7996 99.9996C46.9996 99.9996 56.0996 103.5 63.0996 110.5C70.0996 117.033 73.5996 125.9 73.5996 137.1C73.5996 148.3 70.0996 157.4 63.0996 164.4C56.0996 171.4 47.4663 174.9 37.1996 174.9C25.9996 174.9 16.8996 171.4 9.89961 164.4C3.36628 156.933 0.0996094 147.833 0.0996094 137.1C0.0996094 132.9 0.33294 129.166 0.799606 125.9C1.26627 122.633 2.19961 118.666 3.59961 114C4.99961 109.333 6.86628 103.733 9.19961 97.1996L38.5996 0.599609H72.1996ZM191.2 0.599609L160.4 130.1L154.8 99.9996C166 99.9996 175.1 103.5 182.1 110.5C189.1 117.033 192.6 125.9 192.6 137.1C192.6 148.3 189.1 157.4 182.1 164.4C175.1 171.4 166.466 174.9 156.2 174.9C145 174.9 135.9 171.4 128.9 164.4C122.366 156.933 119.1 147.833 119.1 137.1C119.1 132.9 119.333 129.166 119.8 125.9C120.266 122.633 121.2 118.666 122.6 114C124 109.333 125.866 103.733 128.2 97.1996L157.6 0.599609H191.2Z" fill="#99FF99"/>
</svg>
