<svg width="268" height="269" viewBox="0 0 268 269" fill="none" xmlns="http://www.w3.org/2000/svg">
<path fill-rule="evenodd" clip-rule="evenodd" d="M0 0.621094H267.892V29.4864H27.2916V120.065H240.603V96.3136H133.763V67.451H267.892V70.2361V96.3136V120.065V127.685V145.883V148.927V239.506V266.61V268.371H0V239.506H240.603V148.927H27.2916V172.682H134.137V201.544H0V198.759V172.682V148.927V141.308V123.109V120.065V29.4864V2.38561V0.621094Z" fill="#003D6E"/>
<path fill-rule="evenodd" clip-rule="evenodd" d="M133.997 32.8281H267.894V36.1519H133.997V32.8281Z" fill="#A8D4AF"/>
<path fill-rule="evenodd" clip-rule="evenodd" d="M0.114258 205.039H134.012V208.363H0.114258V205.039Z" fill="#A8D4AF"/>
<path fill-rule="evenodd" clip-rule="evenodd" d="M133.997 53.2461H267.894V56.567H133.997V53.2461Z" fill="#A8D4AF"/>
<path fill-rule="evenodd" clip-rule="evenodd" d="M0.114258 225.441H134.012V228.765H0.114258V225.441Z" fill="#A8D4AF"/>
<path fill-rule="evenodd" clip-rule="evenodd" d="M133.997 39.8672H267.894V43.1911H133.997V39.8672Z" fill="#A8D4AF"/>
<path fill-rule="evenodd" clip-rule="evenodd" d="M0.114258 212.066H134.012V215.39H0.114258V212.066Z" fill="#A8D4AF"/>
<path fill-rule="evenodd" clip-rule="evenodd" d="M133.997 60.2695H267.894V63.5934H133.997V60.2695Z" fill="#A8D4AF"/>
<path fill-rule="evenodd" clip-rule="evenodd" d="M0.114258 232.484H134.012V235.808H0.114258V232.484Z" fill="#A8D4AF"/>
<path fill-rule="evenodd" clip-rule="evenodd" d="M133.997 46.8789H267.894V50.2028H133.997V46.8789Z" fill="#A8D4AF"/>
<path fill-rule="evenodd" clip-rule="evenodd" d="M0.114258 219.09H134.012V222.414H0.114258V219.09Z" fill="#A8D4AF"/>
</svg>
