<svg width="192" height="33" viewBox="0 0 192 33" fill="none" xmlns="http://www.w3.org/2000/svg">
<path fill-rule="evenodd" clip-rule="evenodd" d="M191.9 0H34.2798L34.1826 33H191.802L191.9 0Z" fill="#003D6E"/>
<path d="M55.9763 16.0482H66.4872V16.9021C66.4872 20.9048 65.3521 24.0654 63.0764 26.3841C60.8013 28.7026 57.6994 29.8589 53.7662 29.8589C52.5658 29.8589 51.4252 29.7346 50.3439 29.4795C49.2564 29.2247 48.2584 28.8508 47.3433 28.3648C45.2519 27.22 43.6357 25.6368 42.5006 23.6148C41.3662 21.5928 40.7959 19.2976 40.7959 16.7241C40.7959 14.6073 41.1343 12.6919 41.8116 10.984C42.4947 9.27616 43.517 7.76999 44.8836 6.4773C46.0361 5.38594 47.3673 4.56187 48.888 4.01029C50.4091 3.45281 52.0906 3.17408 53.9384 3.17408C56.3866 3.17408 58.5075 3.61875 60.3081 4.50252C62.1083 5.39185 63.5995 6.7262 64.7818 8.50521L62.2391 10.5393C61.3241 8.99742 60.1772 7.84705 58.8106 7.07608C57.4443 6.30512 55.8517 5.91983 54.0394 5.91983C51.0805 5.91983 48.6801 6.91606 46.8383 8.90855C44.9902 10.901 44.0693 13.5041 44.0693 16.7241C44.0693 19.7603 45.0079 22.251 46.88 24.1959C48.7516 26.1408 51.1399 27.1135 54.0394 27.1135C56.5946 27.1135 58.7214 26.3425 60.4205 24.7947C62.12 23.2472 63.0646 21.237 63.2489 18.7582H55.9763V16.0482ZM74.8112 29.183V6.63143H67.6039V3.74926H85.0489V6.63143H77.877V29.183H74.8112ZM88.4296 29.183V3.74926H91.4596V13.534H105.001V3.74926H108.084V29.183H105.001V16.4158H91.4596V29.183H88.4296ZM114.174 29.183V3.74926H120.158C121.869 3.74926 123.116 3.84438 123.913 4.03391C124.709 4.22968 125.41 4.55597 126.01 5.01834C126.765 5.60533 127.353 6.3999 127.769 7.39024C128.191 8.38059 128.398 9.47784 128.398 10.6817C128.398 12.763 127.816 14.3462 126.645 15.4314C125.481 16.5165 123.77 17.0562 121.518 17.0562H120.977L130.716 29.183H126.866L117.567 17.0562H117.133V29.183H114.174ZM117.133 6.30512V14.8145H119.445C121.815 14.8145 123.402 14.5122 124.204 13.9016C125.006 13.2966 125.404 12.235 125.404 10.7171C125.404 9.08628 124.994 7.94181 124.168 7.28366C123.342 6.63142 121.768 6.30512 119.445 6.30512H117.133ZM133.253 29.183V3.74926H146.693V6.5127H136.283V13.8065H146.693V16.6234H136.283V26.3661H146.693V29.183H133.253ZM151.826 29.183V3.74926H165.266V6.5127H154.857V13.8065H165.266V16.6234H154.857V26.3661H165.266V29.183H151.826ZM179.675 15.0579C181.332 15.7636 182.586 16.7004 183.43 17.8685C184.268 19.0428 184.689 20.4244 184.689 22.0198C184.689 24.3618 183.947 26.2477 182.455 27.6768C180.964 29.1059 178.986 29.8234 176.526 29.8234C174.518 29.8234 172.836 29.3135 171.475 28.2874C170.121 27.2617 169.206 25.8031 168.73 23.9171L171.475 22.5592C171.85 24.1011 172.462 25.2692 173.311 26.0579C174.167 26.8524 175.237 27.2499 176.526 27.2499C178.047 27.2499 179.276 26.8111 180.215 25.9395C181.154 25.0616 181.624 23.9289 181.624 22.5238C181.624 21.3911 181.297 20.4008 180.643 19.5646C179.983 18.7224 178.997 18.0167 177.672 17.4357L174.577 16.1135C172.883 15.4078 171.618 14.5004 170.792 13.3854C169.96 12.2767 169.544 10.9423 169.544 9.39453C169.544 7.58601 170.215 6.09166 171.564 4.91178C172.907 3.73156 174.624 3.13867 176.716 3.13867C178.249 3.13867 179.573 3.46461 180.691 4.11096C181.814 4.7573 182.687 5.71814 183.311 6.98132L180.804 8.57636C180.239 7.59192 179.597 6.86261 178.89 6.38219C178.183 5.90177 177.381 5.65879 176.49 5.65879C175.355 5.65879 174.422 6.00869 173.697 6.70259C172.973 7.39614 172.61 8.27991 172.61 9.35912C172.61 10.2606 172.889 11.0434 173.448 11.7015C174 12.3656 174.868 12.9466 176.038 13.4566L179.675 15.0579Z" fill="#FEFEFE"/>
<path fill-rule="evenodd" clip-rule="evenodd" d="M0 0.197266H32.6046V3.71223H3.32161V14.7421H29.2833V11.8499H16.2801V8.33523H32.6046V8.67437V11.8499V14.7421V15.6699V17.886V18.2567V29.2866V32.587V32.8015H0V29.2866H29.2833V18.2567H3.32161V21.1493H16.3256V24.6639H0V24.3248V21.1493V18.2567V17.3288V15.1128V14.7421V3.71223V0.412133V0.197266Z" fill="#003D6E"/>
<path fill-rule="evenodd" clip-rule="evenodd" d="M16.3076 4.11914H32.604V4.52388H16.3076V4.11914Z" fill="#A8D4AF"/>
<path fill-rule="evenodd" clip-rule="evenodd" d="M0.0136719 25.0889H16.3101V25.4936H0.0136719V25.0889Z" fill="#A8D4AF"/>
<path fill-rule="evenodd" clip-rule="evenodd" d="M16.3076 6.60547H32.604V7.00986H16.3076V6.60547Z" fill="#A8D4AF"/>
<path fill-rule="evenodd" clip-rule="evenodd" d="M0.0136719 27.5752H16.3101V27.9799H0.0136719V27.5752Z" fill="#A8D4AF"/>
<path fill-rule="evenodd" clip-rule="evenodd" d="M16.3076 4.97559H32.604V5.38034H16.3076V4.97559Z" fill="#A8D4AF"/>
<path fill-rule="evenodd" clip-rule="evenodd" d="M0.0136719 25.9453H16.3101V26.3501H0.0136719V25.9453Z" fill="#A8D4AF"/>
<path fill-rule="evenodd" clip-rule="evenodd" d="M16.3076 7.46191H32.604V7.86667H16.3076V7.46191Z" fill="#A8D4AF"/>
<path fill-rule="evenodd" clip-rule="evenodd" d="M0.0136719 28.4316H16.3101V28.8364H0.0136719V28.4316Z" fill="#A8D4AF"/>
<path fill-rule="evenodd" clip-rule="evenodd" d="M16.3076 5.83008H32.604V6.23483H16.3076V5.83008Z" fill="#A8D4AF"/>
<path fill-rule="evenodd" clip-rule="evenodd" d="M0.0136719 26.7998H16.3101V27.2046H0.0136719V26.7998Z" fill="#A8D4AF"/>
</svg>
