<svg width="22" height="20" viewBox="0 0 22 20" fill="none" xmlns="http://www.w3.org/2000/svg">
<g clip-path="url(#clip0_635_4802)">
<path d="M20.79 13.8702C19.2867 13.8702 17.8322 13.6461 16.4756 13.2428C16.0478 13.1083 15.5711 13.2092 15.2411 13.5117L13.3222 15.7188C9.86333 14.2063 6.62444 11.3494 4.90111 8.06667L7.28444 6.20685C7.61444 5.89315 7.71222 5.4562 7.57778 5.06407C7.12556 3.82046 6.89333 2.48722 6.89333 1.10917C6.89333 0.504167 6.34333 0 5.68333 0H1.45444C0.794445 0 0 0.268889 0 1.10917C0 11.5174 9.44778 20.1667 20.79 20.1667C21.6578 20.1667 22 19.4608 22 18.8446V14.9794C22 14.3744 21.45 13.8702 20.79 13.8702Z" fill="#111827"/>
</g>
<defs>
<clipPath id="clip0_635_4802">
<rect width="22" height="20" fill="white"/>
</clipPath>
</defs>
</svg>
