<svg width="27" height="27" viewBox="0 0 27 27" fill="none" xmlns="http://www.w3.org/2000/svg">
<path d="M7.1739 0.032104C5.23247 0.333038 3.79516 1.04578 2.44903 2.36566C1.01173 3.78586 0.244811 5.38556 0.0356512 7.42874C-0.0984255 8.67471 0.153639 10.2586 0.657767 11.3778C0.781118 11.6524 0.781118 11.6788 0.754302 12.8878C0.722124 14.1285 0.765029 14.7515 0.931284 15.649C1.64457 19.4872 4.16521 22.8503 7.64048 24.5872C8.87935 25.2102 10.0217 25.5798 11.4107 25.8174C11.947 25.9071 12.3332 25.9335 13.3414 25.9441L14.6017 25.9547L15.1649 26.2239C15.787 26.5248 16.4574 26.7519 17.1492 26.8997C17.5139 26.9789 17.8357 27 18.7581 27C19.7717 27 19.9809 26.9842 20.4689 26.8786C22.0993 26.5196 23.3543 25.8332 24.5556 24.6559C25.3011 23.9167 25.7355 23.3307 26.1592 22.4649C27.264 20.2316 27.28 17.5866 26.2074 15.3322L26.0304 14.9626L26.0465 13.6692C26.068 11.8372 25.9071 10.776 25.3762 9.23434C23.8477 4.78369 19.8683 1.53149 15.1381 0.866271C14.3872 0.755401 13.1484 0.718444 12.4941 0.776519L11.9417 0.824035L11.4644 0.623413C10.4132 0.174652 9.43175 -0.0101324 8.16606 0.000426725C7.69411 0.00570627 7.24898 0.0215449 7.1739 0.032104ZM9.58728 1.44702C10.1558 1.56845 10.7242 1.76379 11.2391 2.00665L11.6789 2.21783L12.1186 2.15976C12.7569 2.08057 14.2424 2.0964 14.886 2.18616C20.5387 2.97809 24.7379 7.77191 24.7058 13.4052C24.7058 13.7959 24.6736 14.3555 24.6414 14.6459L24.5771 15.1738L24.8345 15.6648C25.344 16.6257 25.5639 17.4546 25.6068 18.5897C25.6711 20.3214 25.2099 21.7416 24.1426 23.0984C22.9091 24.6612 21.0964 25.5904 19.0799 25.6907C17.7499 25.754 16.3823 25.4214 15.3204 24.7773L14.9343 24.5397L14.1781 24.6031C12.2795 24.7509 10.1772 24.3338 8.43422 23.4627C7.16317 22.8292 6.3158 22.2167 5.34509 21.24C3.73617 19.6034 2.71182 17.6552 2.27205 15.3956C2.06825 14.3608 2.03071 12.7505 2.18624 11.8372C2.23987 11.5204 2.23451 11.494 2.07898 11.1825C1.84301 10.7285 1.56413 9.87317 1.46223 9.31882C1.36033 8.72223 1.36033 7.66104 1.46223 7.01694C1.92881 4.19766 4.25102 1.8905 7.12563 1.39423C7.69948 1.29919 9.01879 1.32559 9.58728 1.44702Z" fill="white"/>
<path d="M14.4033 6.27252C15.1005 6.42035 15.5349 6.56818 16.1731 6.86911C17.4495 7.48154 18.2057 8.27875 18.3076 9.12875C18.3988 9.91012 17.841 10.5014 16.999 10.5014C16.5164 10.5014 16.3126 10.38 15.5671 9.63031C15.0522 9.11291 14.8484 8.94925 14.5481 8.80142C13.3897 8.22595 11.6306 8.26819 10.8047 8.88589C10.1021 9.40857 9.94124 10.3694 10.4507 10.9449C10.9012 11.4465 11.3839 11.626 13.7651 12.1592C15.7709 12.608 16.1624 12.7294 16.8381 13.0726C17.3798 13.3471 17.9966 13.8751 18.3023 14.3344C18.7259 14.9626 18.9673 15.9658 18.8976 16.8263C18.7689 18.3785 17.9698 19.5242 16.5325 20.2211C15.4706 20.7332 14.3658 20.9285 12.8051 20.8863C11.3839 20.8441 10.3381 20.617 9.39957 20.1419C8.02126 19.445 7.22753 18.4471 7.22753 17.4282C7.22753 16.6891 7.72629 16.1822 8.46103 16.1822C9.04024 16.1822 9.15823 16.272 10.2952 17.576C10.8637 18.2254 11.3517 18.4999 12.242 18.6689C12.8158 18.7798 13.8348 18.7375 14.2531 18.5897C15.2346 18.2465 15.7816 17.6552 15.846 16.8738C15.905 16.1717 15.5778 15.6173 14.9289 15.3269C14.768 15.2583 13.6686 14.9521 12.478 14.6512C11.2874 14.3502 10.1558 14.044 9.96269 13.9701C8.56293 13.4527 7.74774 12.6713 7.37769 11.5045C7.27579 11.1719 7.25434 10.9924 7.25434 10.3694C7.25434 9.53528 7.32942 9.19211 7.62976 8.5744C8.21969 7.37067 9.65163 6.49954 11.5448 6.19861C12.2259 6.09302 13.7329 6.12997 14.4033 6.27252Z" fill="white"/>
</svg>
