<svg width="29" height="29" viewBox="0 0 29 29" fill="none" xmlns="http://www.w3.org/2000/svg">
<path d="M8.57174 15.5658L5.05 14.1447L21.25 7.75L17.7283 21.25L14.2065 18.5855M8.57174 15.5658L17.0239 11.3026L12.0935 16.9868M8.57174 15.5658L10.6848 21.25M12.0935 16.9868L10.6848 21.25M12.0935 16.9868L14.2065 18.5855M10.6848 21.25L14.2065 18.5855M28 14.5C28 21.9558 21.9558 28 14.5 28C7.04416 28 1 21.9558 1 14.5C1 7.04416 7.04416 1 14.5 1C21.9558 1 28 7.04416 28 14.5Z" stroke="white" stroke-linejoin="round"/>
</svg>
