<svg width="25" height="27" viewBox="0 0 25 27" fill="none" xmlns="http://www.w3.org/2000/svg">
<path d="M9.4459 0.0481746C7.72513 0.143162 5.62826 0.370075 5.01002 0.517832C3.84567 0.797516 2.86679 1.36216 1.9961 2.25398C1.07905 3.1933 0.502023 4.29092 0.275335 5.54159C0.0641027 6.72365 -0.0698493 11.6841 0.0383427 14.3437C0.110471 16.0165 0.182599 17.1353 0.249575 17.5944C0.486567 19.1406 1.38301 20.6656 2.61949 21.6208C3.63959 22.407 4.61332 22.7659 6.21559 22.9453L6.79262 23.0139V25.0192C6.79262 26.8978 6.79777 27.0192 6.88535 26.9981C6.93172 26.9822 8.39489 26.1485 10.1311 25.1458L13.2893 23.3253L13.8148 23.2936C14.1033 23.2778 14.871 23.2408 15.5253 23.2092C17.7406 23.1036 19.6366 22.8873 20.43 22.6498C22.5732 22.0113 24.2579 20.1326 24.7267 17.8529C24.9174 16.9242 25.0049 14.9558 24.9998 11.5733C24.9998 8.30676 24.9174 6.35953 24.7422 5.47826C24.4846 4.18538 23.8612 3.05082 22.8978 2.1115C22.161 1.3991 21.28 0.881949 20.3166 0.596988C19.6005 0.385906 17.7458 0.174824 15.448 0.0428976C14.4073 -0.01515 10.5072 -0.01515 9.4459 0.0481746ZM14.2115 1.22496C16.2981 1.26717 18.9771 1.50992 19.8478 1.73683C21.517 2.16955 22.939 3.55741 23.449 5.24079C23.7272 6.159 23.82 7.78433 23.82 11.7052C23.8148 17.0825 23.6706 18.1379 22.7638 19.4836C22.4547 19.9374 21.8416 20.5601 21.4088 20.8503C21.007 21.1247 20.4403 21.3886 19.9766 21.5152C19.1368 21.7474 16.6226 21.9849 13.9281 22.0799L12.9493 22.1115L10.4918 23.5311C9.14193 24.3121 8.02394 24.9506 8.00849 24.9506C7.99303 24.9506 7.97758 24.2698 7.97758 23.4308V21.9163L6.73079 21.7738C6.04042 21.6946 5.3449 21.5944 5.17489 21.5469C3.75809 21.1564 2.61434 20.2276 1.96004 18.9347C1.53242 18.0957 1.42423 17.6419 1.33665 16.3754C1.12026 13.2936 1.14087 8.76586 1.38301 6.29093C1.61485 3.92681 3.33562 2.0429 5.63342 1.63129C6.00436 1.56797 7.75089 1.38855 8.82766 1.30411C9.59015 1.24607 12.3156 1.16163 12.6659 1.18802C12.7638 1.19329 13.4593 1.2144 14.2115 1.22496Z" fill="white"/>
<path d="M12.5113 4.6867H12.8153C13.6602 4.6867 14.6855 4.94528 15.5253 5.36744C17.2924 6.26454 18.3537 7.816 18.6628 9.97959C18.7092 10.2857 18.7453 10.655 18.7453 10.8028V11.0719H19.9457L19.9148 10.4651C19.7447 7.48882 18.2404 5.17747 15.7571 4.0904C14.9482 3.73683 13.7375 3.47298 12.9132 3.47298H12.5113V4.6867Z" fill="white"/>
<path d="M12.5113 7.00861H12.7638C13.1656 7.00861 13.8921 7.15636 14.2991 7.32523C15.5768 7.84766 16.3238 8.9875 16.4526 10.6076L16.4887 11.0719H17.6633V10.8292C17.6633 10.4281 17.5139 9.51521 17.38 9.09304C16.7514 7.12998 15.1904 5.9532 13.042 5.81072L12.5113 5.77905V7.00861Z" fill="white"/>
<path d="M12.5113 9.31468L12.8359 9.34634C13.6911 9.43077 14.0466 9.77906 14.1703 10.6498L14.227 11.0719H15.4068L15.3707 10.6656C15.2986 9.85294 15.0925 9.34106 14.6649 8.87141C14.2579 8.43341 13.7118 8.2065 12.9132 8.1379L12.5113 8.10096V9.31468Z" fill="white"/>
<path d="M7.82817 6.58116C8.12183 6.77642 9.50257 8.21705 9.5747 8.40175C9.64167 8.59172 9.64167 8.88724 9.56439 9.02972C9.53348 9.09304 9.37377 9.3094 9.2089 9.50993C8.70916 10.1168 8.52884 10.6128 8.53399 11.3622C8.53399 11.9427 8.66794 12.4123 8.9513 12.8503C9.06465 13.0192 9.49741 13.5047 9.91988 13.9268C10.9297 14.9347 11.3058 15.1353 12.228 15.1353C12.9699 15.1353 13.4954 14.9242 14.0775 14.3912C14.4536 14.0535 14.5618 14.006 14.9534 14.0218C15.1698 14.0271 16.9163 15.8002 17.0039 16.0957C17.1018 16.4387 17.0039 16.6392 16.4887 17.1564C15.7416 17.9004 15.2367 18.0746 14.0054 18.0113C11.11 17.8529 8.6937 16.4756 7.13265 14.0851C6.20529 12.6603 5.71585 10.9453 5.7107 9.09304C5.7107 8.16428 5.90132 7.66824 6.52471 6.99805C7.09658 6.38591 7.3851 6.29093 7.82817 6.58116Z" fill="white"/>
</svg>
