<svg width="27" height="27" viewBox="0 0 27 27" fill="none" xmlns="http://www.w3.org/2000/svg">
<path d="M11.9085 0.0712526C7.46624 0.620161 3.50938 3.44388 1.54149 7.46041C1.07722 8.41572 0.839808 9.03853 0.591844 9.97273C-0.183702 12.9337 0.0589859 16.0741 1.28298 18.8503L1.50984 19.3728L0.739567 23.1677C0.312226 25.2524 -0.0201514 26.9783 0.000951915 26.9995C0.0220552 27.0153 1.74725 26.6828 3.84175 26.2553L7.64035 25.4794L8.11517 25.6958C9.16506 26.1655 10.4418 26.535 11.7344 26.7356C12.6207 26.8728 14.6625 26.857 15.6016 26.7092C17.0524 26.4717 18.2131 26.1022 19.5321 25.4583C23.1988 23.6638 25.8789 20.212 26.7336 16.1796C27.0923 14.5171 27.087 12.2739 26.7283 10.6061C26.2957 8.61629 25.4304 6.76372 24.159 5.11171C23.7105 4.53642 22.4549 3.28026 21.8798 2.83163C19.8961 1.30102 17.6591 0.372097 15.2323 0.0712526C14.4356 -0.0237509 12.6999 -0.0237509 11.9085 0.0712526ZM14.8524 1.36963C17.0893 1.61242 19.321 2.52551 21.1095 3.94C21.5896 4.31474 22.6764 5.402 23.051 5.8823C25.9633 9.57688 26.5067 14.5804 24.4438 18.7289C23.1988 21.2254 21.2572 23.1518 18.7934 24.3288C16.1872 25.5691 13.3541 25.8489 10.5843 25.1416C9.88257 24.9622 9.25475 24.7352 8.4792 24.3816L7.81445 24.0807L4.76502 24.7035C3.08731 25.0466 1.69977 25.3211 1.68922 25.3105C1.67866 25.3 1.95301 23.9118 2.29594 22.2334L2.91848 19.1828L2.61776 18.5178C1.4307 15.9104 1.16691 13.2503 1.82639 10.548C3.02928 5.62368 7.22883 1.93438 12.2778 1.36963C12.8581 1.3063 14.2615 1.30102 14.8524 1.36963Z" fill="white"/>
<path d="M9.50799 7.16485C9.71902 7.29152 11.1382 8.66379 11.3862 8.98047C11.7713 9.46076 11.7238 9.80383 11.191 10.395C10.2941 11.3978 10.12 12.712 10.732 13.8943C10.8955 14.2004 11.0907 14.4326 11.8293 15.1662C12.5627 15.9052 12.7948 16.1005 13.1008 16.2641C13.5915 16.5174 13.9977 16.6177 14.52 16.6177C15.3536 16.6177 15.9603 16.3749 16.6145 15.789C17.1368 15.3193 17.4956 15.2454 17.8965 15.5304C17.9862 15.5885 18.4611 16.0582 18.9623 16.5702C19.933 17.5624 19.9858 17.6469 19.9014 18.0797C19.8592 18.3225 19.1627 19.0614 18.6985 19.3675C18.1867 19.7 17.9229 19.7581 16.8941 19.7528C15.9076 19.7475 15.3167 19.6842 14.52 19.4836C12.0562 18.8767 9.93005 17.3197 8.62692 15.161C8.11517 14.3218 7.74586 13.4298 7.51373 12.4745C7.31324 11.6775 7.24993 11.0864 7.24466 10.0994C7.23938 8.86435 7.35545 8.52129 8.04131 7.76126C8.6322 7.10151 9.09647 6.91151 9.50799 7.16485Z" fill="white"/>
</svg>
